<svg width="74" height="19" viewBox="0 0 74 19" fill="none" xmlns="http://www.w3.org/2000/svg">
<path d="M10.3867 13.7755C10.3867 13.1114 10.1523 12.6036 9.68359 12.252C9.21484 11.8926 8.37109 11.5176 7.15234 11.127C5.93359 10.7286 4.96875 10.338 4.25781 9.95514C2.32031 8.90826 1.35156 7.49811 1.35156 5.72467C1.35156 4.8028 1.60938 3.98248 2.125 3.26373C2.64844 2.53717 3.39453 1.97076 4.36328 1.56451C5.33984 1.15826 6.43359 0.955139 7.64453 0.955139C8.86328 0.955139 9.94922 1.1778 10.9023 1.62311C11.8555 2.06061 12.5938 2.6817 13.1172 3.48639C13.6484 4.29108 13.9141 5.20514 13.9141 6.22858H10.3984C10.3984 5.44733 10.1523 4.84186 9.66016 4.41217C9.16797 3.97467 8.47656 3.75592 7.58594 3.75592C6.72656 3.75592 6.05859 3.93951 5.58203 4.3067C5.10547 4.66608 4.86719 5.14264 4.86719 5.73639C4.86719 6.29108 5.14453 6.75592 5.69922 7.13092C6.26172 7.50592 7.08594 7.85748 8.17188 8.18561C10.1719 8.78717 11.6289 9.53326 12.543 10.4239C13.457 11.3145 13.9141 12.4239 13.9141 13.752C13.9141 15.2286 13.3555 16.3887 12.2383 17.2325C11.1211 18.0684 9.61719 18.4864 7.72656 18.4864C6.41406 18.4864 5.21875 18.2481 4.14062 17.7715C3.0625 17.2872 2.23828 16.627 1.66797 15.7911C1.10547 14.9551 0.824219 13.9864 0.824219 12.8848H4.35156C4.35156 14.7676 5.47656 15.709 7.72656 15.709C8.5625 15.709 9.21484 15.5411 9.68359 15.2051C10.1523 14.8614 10.3867 14.3848 10.3867 13.7755ZM29.1484 4.03717H23.9219V18.252H20.4062V4.03717H15.25V1.18951H29.1484V4.03717ZM39.3906 14.7364H33.2266L32.0547 18.252H28.3164L34.668 1.18951H37.9258L44.3125 18.252H40.5742L39.3906 14.7364ZM34.1758 11.8887H38.4414L36.2969 5.50201L34.1758 11.8887ZM52.2227 12.0059H49.4219V18.252H45.9062V1.18951H52.2461C54.2617 1.18951 55.8164 1.63873 56.9102 2.53717C58.0039 3.43561 58.5508 4.70514 58.5508 6.34576C58.5508 7.50983 58.2969 8.48248 57.7891 9.26373C57.2891 10.0372 56.5273 10.6544 55.5039 11.1153L59.1953 18.088V18.252H55.4219L52.2227 12.0059ZM49.4219 9.15826H52.2578C53.1406 9.15826 53.8242 8.93561 54.3086 8.4903C54.793 8.03717 55.0352 7.41608 55.0352 6.62701C55.0352 5.82233 54.8047 5.18951 54.3438 4.72858C53.8906 4.26764 53.1914 4.03717 52.2461 4.03717H49.4219V9.15826ZM73.4922 4.03717H68.2656V18.252H64.75V4.03717H59.5938V1.18951H73.4922V4.03717Z" fill="white"/>
</svg>
